<svg width="101" height="32" viewBox="0 0 101 32" fill="none" xmlns="http://www.w3.org/2000/svg">
<path d="M8.38174 19.9171L5.51559 28.2771H5.46786L2.60267 19.9171H0L4.47905 31.8546H6.50271L10.9815 19.9171H8.38174Z" fill="#1D231E"/>
<path d="M18.8272 31.8549V30.7959H18.7795C18.2737 31.6198 17.4298 31.9976 15.7672 31.9976C13.0479 31.9976 11.4581 30.4189 11.4581 28.3458C11.4581 26.44 12.8064 24.816 15.4312 24.816H18.8272V23.5679C18.8272 22.4378 18.0802 22.0372 16.3219 22.0372C15.0453 22.0372 14.4441 22.2731 14.0116 22.9556L12.0844 21.5194C13.0228 20.248 14.3725 19.777 16.2023 19.777C19.2119 19.777 21.2835 20.7658 21.2835 23.7091V31.8549H18.8272ZM18.8272 27.6634V26.7929H15.8892C14.4441 26.7929 13.7699 27.3587 13.7699 28.2289C13.7699 29.0294 14.4202 29.7365 16.0816 29.7365C18.1291 29.7365 18.8272 29.5248 18.8272 27.6634Z" fill="#1D231E"/>
<path d="M51.4148 31.8546H53.8712V19.9185H51.4148V31.8546Z" fill="#1D231E"/>
<path d="M68.5576 25.8756C68.5576 28.465 68.9436 29.4538 69.882 30.4653C70.5562 31.1947 71.688 31.9974 73.5909 31.9974C75.4935 31.9974 76.6248 31.1947 77.2986 30.4653C78.237 29.4538 78.6246 28.465 78.6246 25.8756C78.6246 23.3086 78.237 22.3198 77.2986 21.3083C76.6248 20.5786 75.4935 19.7771 73.5909 19.7771C71.688 19.7771 70.5562 20.5786 69.882 21.3083C68.9436 22.3198 68.5576 23.3086 68.5576 25.8756ZM76.1668 25.899C76.1668 27.6182 76.0224 28.089 75.5656 28.7246C75.2033 29.2173 74.4324 29.5951 73.5909 29.5951C72.7469 29.5951 71.976 29.2173 71.6149 28.7246C71.1586 28.089 71.0152 27.6182 71.0152 25.8756C71.0152 24.1566 71.1586 23.6858 71.6149 23.0487C71.976 22.5548 72.7469 22.1785 73.5909 22.1785C74.4324 22.1785 75.2033 22.5548 75.5656 23.0487C76.0224 23.6858 76.1668 24.1566 76.1668 25.899ZM56.6758 31.855H59.1321V24.7458C59.1321 23.1213 60.167 22.1785 61.5644 22.1785C62.937 22.1785 63.9723 23.1213 63.9723 24.7458V31.855H66.4282V23.9209C66.4282 21.2133 64.2613 19.7771 62.3594 19.7771C61.0579 19.7771 59.9522 20.2479 59.1799 21.19H59.1321V19.9172H56.6758V31.855Z" fill="#1D231E"/>
<path d="M83.5031 31.8549H85.5268L90.0056 19.9188H87.4046L84.5408 28.2771H84.4893L81.6253 19.9188H79.024L83.5031 31.8549Z" fill="#1D231E"/>
<path d="M97.8511 31.8549H100.307V23.7091C100.307 20.7658 98.2361 19.777 95.2263 19.777C93.395 19.777 92.0467 20.248 91.1083 21.5194L93.0356 22.9556C93.468 22.2731 94.0704 22.0372 95.347 22.0372C97.1041 22.0372 97.8511 22.4378 97.8511 23.5679V24.816H94.4551C91.8303 24.816 90.4823 26.44 90.4823 28.3458C90.4823 30.4189 92.0709 31.9976 94.7924 31.9976C96.4537 31.9976 97.2965 31.6198 97.8036 30.7959H97.8511V31.8549ZM97.8511 27.6634C97.8511 29.5248 97.153 29.7365 95.1055 29.7365C93.4441 29.7365 92.7926 29.0294 92.7926 28.2289C92.7926 27.3587 93.468 26.7929 94.9119 26.7929H97.8511V27.6634Z" fill="#1D231E"/>
<path d="M63.2575 1.94628C62.7822 1.55408 62.7192 0.860567 63.1206 0.393642C63.5205 -0.0723152 64.2311 -0.133789 64.7077 0.25841C65.1855 0.649403 65.2472 1.34533 64.8461 1.81105C64.4474 2.27701 63.737 2.33872 63.2575 1.94628ZM25.5309 21.8095C26.0087 21.4195 26.0704 20.7235 25.6693 20.2566C25.2703 19.7906 24.5585 19.7304 24.0807 20.1214C23.6042 20.5124 23.5424 21.2083 23.9424 21.6743C24.3423 22.1414 25.0543 22.2005 25.5309 21.8095ZM27.6626 24.2931C28.1394 23.9006 28.2023 23.2059 27.8024 22.7402C27.401 22.2742 26.6892 22.2128 26.2138 22.605C25.736 22.996 25.6743 23.6907 26.0743 24.1566C26.4744 24.6226 27.186 24.6855 27.6626 24.2931ZM34.0558 31.7417C34.5324 31.3505 34.5965 30.656 34.1952 30.1888C33.794 29.7229 33.0834 29.6626 32.6069 30.0538C32.1303 30.4448 32.0659 31.1405 32.467 31.6065C32.8672 32.0724 33.5788 32.1336 34.0558 31.7417ZM31.9251 29.2593C32.4029 28.8671 32.4634 28.1724 32.0635 27.7064C31.6636 27.2407 30.9527 27.179 30.475 27.5714C29.9982 27.9619 29.9367 28.6567 30.3368 29.1229C30.7365 29.5888 31.4486 29.6505 31.9251 29.2593ZM32.6107 21.8095C32.1351 21.4195 32.071 20.7235 32.4721 20.2566C32.8735 19.7906 33.5838 19.7304 34.0595 20.1214C34.5375 20.5124 34.6004 21.2083 34.1993 21.6743C33.7991 22.1414 33.0875 22.2005 32.6107 21.8095ZM30.4786 24.2931C30.002 23.9006 29.9403 23.2059 30.339 22.7402C30.7404 22.2742 31.4522 22.2128 31.9276 22.605C32.407 22.996 32.4685 23.6907 32.0674 24.1566C31.6687 24.6226 30.9568 24.6855 30.4786 24.2931ZM28.3496 26.7757C27.8713 26.3847 27.8084 25.69 28.2095 25.2226C28.6097 24.7566 29.3203 24.6964 29.7986 25.0874C30.2751 25.4783 30.3368 26.1743 29.9379 26.64C29.5368 27.1076 28.8249 27.1665 28.3496 26.7757ZM24.086 31.7417C23.6092 31.3505 23.5475 30.656 23.946 30.1888C24.3471 29.7229 25.0577 29.6626 25.5348 30.0538C26.0137 30.4448 26.0743 31.1405 25.6743 31.6065C25.2754 32.0724 24.5636 32.1336 24.086 31.7417ZM26.2177 29.2593C25.7394 28.8671 25.6782 28.1724 26.0779 27.7064C26.4778 27.2407 27.1896 27.179 27.6667 27.5714C28.1432 27.9619 28.2073 28.6567 27.8062 29.1229C27.4049 29.5888 26.6942 29.6505 26.2177 29.2593ZM39.1496 21.8095C39.6261 21.4195 39.6893 20.7235 39.2891 20.2566C38.888 19.7906 38.1762 19.7304 37.6996 20.1214C37.2235 20.5124 37.1611 21.2083 37.5608 21.6743C37.9619 22.1414 38.6742 22.2005 39.1496 21.8095ZM41.2815 24.2931C41.758 23.9006 41.8197 23.2059 41.421 22.7402C41.0197 22.2742 40.3091 22.2128 39.8325 22.605C39.3533 22.996 39.2916 23.6907 39.6927 24.1566C40.0914 24.6226 40.8035 24.6855 41.2815 24.2931ZM45.5441 29.2593C46.0206 28.8671 46.0818 28.1724 45.6834 27.7064C45.2823 27.2407 44.5704 27.179 44.0951 27.5714C43.6168 27.9619 43.5539 28.6567 43.9553 29.1229C44.354 29.5888 45.0658 29.6505 45.5441 29.2593ZM56.8758 9.3961C56.3993 9.0051 56.3373 8.31038 56.7375 7.84442C57.1364 7.37726 57.8482 7.3182 58.326 7.70798C58.804 8.10018 58.8643 8.7949 58.4658 9.2611C58.0657 9.72682 57.3536 9.78829 56.8758 9.3961ZM50.4939 16.8437C50.0161 16.4537 49.9534 15.7578 50.3546 15.2916C50.7545 14.8247 51.4651 14.7642 51.9429 15.1564C52.4197 15.5464 52.484 16.2423 52.0829 16.708C51.6816 17.1754 50.9709 17.2355 50.4939 16.8437ZM46.2303 21.8095C45.7514 21.4195 45.6897 20.7235 46.0908 20.2566C46.4892 19.7906 47.2015 19.7304 47.6769 20.1214C48.1573 20.5124 48.2176 21.2083 47.8165 21.6743C47.419 22.1414 46.7057 22.2005 46.2303 21.8095ZM44.0975 24.2931C43.6207 23.9006 43.5578 23.2059 43.9591 22.7402C44.359 22.2742 45.0709 22.2128 45.5474 22.605C46.024 22.996 46.0872 23.6907 45.6858 24.1566C45.2861 24.6226 44.574 24.6855 44.0975 24.2931ZM41.9668 26.7757C41.4902 26.3847 41.4271 25.69 41.8272 25.2226C42.2271 24.7566 42.939 24.6964 43.4155 25.0874C43.8938 25.4783 43.9562 26.1743 43.5556 26.64C43.1554 27.1076 42.4448 27.1665 41.9668 26.7757ZM39.8361 29.2593C39.3583 28.8671 39.2966 28.1724 39.6977 27.7064C40.0967 27.2407 40.8073 27.179 41.2865 27.5714C41.7617 27.9619 41.8248 28.6567 41.4249 29.1229C41.0238 29.5888 40.3129 29.6505 39.8361 29.2593ZM47.6743 31.7417C48.1513 31.3505 48.2137 30.656 47.8129 30.1888C47.413 29.7229 46.7023 29.6626 46.2253 30.0538C45.7475 30.4448 45.6858 31.1405 46.0872 31.6065C46.4859 32.0724 47.1975 32.1336 47.6743 31.7417ZM37.7042 31.7417C37.2276 31.3505 37.1647 30.656 37.5649 30.1888C37.966 29.7229 38.6766 29.6626 39.1532 30.0538C39.6314 30.4448 39.6944 31.1405 39.293 31.6065C38.8931 32.0724 38.1813 32.1336 37.7042 31.7417Z" fill="#B28118"/>
</svg>
